<?xml version="1.0" encoding="utf-8"?>
<!-- Generator: Adobe Illustrator 25.0.0, SVG Export Plug-In . SVG Version: 6.00 Build 0)  -->
<svg version="1.1" id="Camada_1" xmlns="http://www.w3.org/2000/svg" xmlns:xlink="http://www.w3.org/1999/xlink" x="0px" y="0px"
	 viewBox="0 0 400 139" style="enable-background:new 0 0 400 139;" xml:space="preserve">
<style type="text/css">
	.st0{fill:#FFFFFF;}
	.st1{fill:#00FFFF;}
</style>
<g>
	<path class="st0" d="M373.33,7.7v20.52c-5.47-2.52-11.37-3.92-17.26-3.92c-18.12,0-31.56,9.65-36.65,25.2
		c-5.55-15.58-20.32-25.2-40.13-25.2c-25.69,0-42.81,15.82-42.81,39.77c0,23.81,17.13,39.77,42.81,39.77
		c19.69,0,34.39-9.59,40.02-24.98c4.83,15.42,17.56,24.98,34.79,24.98c8.14,0,16.56-2.1,23.3-5.74c6.18,3.36,13.62,5.18,22.6,5.18V0
		L373.33,7.7z M279.15,83.11c-9.12,0-15.16-7.7-15.16-19.05c0-11.48,6.04-19.04,15.16-19.04c8.98,0,15.16,7.56,15.16,19.04
		C294.31,75.41,288.13,83.11,279.15,83.11z M373.33,79.89c-4.21,2.1-8.56,3.22-12.35,3.22c-10.25,0-16.28-7.7-16.28-19.05
		c0-11.48,7.16-19.04,17.97-19.04c3.23,0,7.02,1.12,10.67,2.94V79.89z"/>
	<path class="st0" d="M72.99,103.28c-8,0-15.86-1.82-22.18-4.9c-6.88,3.5-15.16,5.46-23.58,5.46C9.83,103.84,0,95.02,0,79.05
		c0-15.82,11.23-24.65,31.44-24.65c4.49,0,9.69,0.84,14.88,2.8v-1.82c0-6.58-5.05-10.36-13.62-10.36c-7.86,0-18.11,1.26-26.67,3.36
		V29.06c8.14-2.94,20.07-4.76,32.14-4.76c21.9,0,34.81,10.64,34.81,28.85V103.28z M38.32,85.07c2.67,0,5.33-0.56,8-1.54v-10.5
		c-2.95-1.12-5.61-1.68-8-1.68c-7.02,0-10.81,2.38-10.81,7.14C27.51,82.97,31.3,85.07,38.32,85.07z"/>
	<g>
		<g>
			<path class="st1" d="M203.5,22.59c-8.14,0-16.42,2.1-23.16,5.74c-12.96,8.26-21.1,19.62-22.5,37.39c0.08-1.15,0.13-2.31,0.13-3.5
				c0-23.81-14.74-39.63-36.92-39.63c-8.14,0-16.42,2.1-23.16,5.74c-14.29,9.1-22.74,21.94-22.74,43.02v54.35
				c0,7.35,5.97,13.3,13.34,13.3s13.34-5.96,13.34-13.3V98.21c5.47,2.52,11.37,3.92,17.27,3.92c21.64,0,36.61-13.77,38.64-34.9
				c-0.08,1.34-0.12,2.71-0.12,4.13v54.35c0,7.35,5.97,13.3,13.34,13.3h0c7.36,0,13.34-5.96,13.34-13.3V98.21
				c5.47,2.52,11.37,3.92,17.27,3.92c23.3,0,38.88-15.96,38.88-39.91C240.42,38.41,225.68,22.59,203.5,22.59z"/>
		</g>
	</g>
</g>
</svg>
